<?xml version="1.0" encoding="UTF-8" standalone="no"?>
<!-- Created with Inkscape (http://www.inkscape.org/) -->
<svg id="svg2985" xmlns:rdf="http://www.w3.org/1999/02/22-rdf-syntax-ns#" xmlns="http://www.w3.org/2000/svg" height="160" width="200" version="1.1" xmlns:cc="http://creativecommons.org/ns#" xmlns:dc="http://purl.org/dc/elements/1.1/">
 <metadata id="metadata2991">
  <rdf:RDF>
   <cc:Work rdf:about="">
    <dc:format>image/svg+xml</dc:format>
    <dc:type rdf:resource="http://purl.org/dc/dcmitype/StillImage"/>
    <dc:title/>
   </cc:Work>
  </rdf:RDF>
 </metadata>
 <path id="path2995" fill="#fff" d="m38.5 148.02c-3.469-8.31-18.433-44.57-25.917-62.789-8.6588-21.081-9.0155-22.181-7.938-24.49 0.51579-1.1054 1.4903-4.7046 2.1655-7.9984 1.0818-5.2767 1.8289-6.5249 6.2845-10.5 2.7812-2.4812 8.5638-7.7066 12.85-11.612 9.3145-8.4863 18.591-13.385 26.748-14.125 4.9358-0.44756 6.2977-0.16977 9.6699 1.9724 2.1588 1.3713 4.7822 3.4517 5.83 4.623 2.4327 2.7197 3.0246 2.677 4.3886-0.3166 1.9871-4.3612 8.5968-10.825 13.123-12.834 3.248-1.4416 7.2174-2.0483 15-2.2926 5.8207-0.18273 14.443-0.60615 19.16-0.94092l8.5767-0.60868 29.14 29.601c27.501 27.936 29.107 29.769 28.544 32.585-0.5121 2.5605 0.13051 3.8195 4.533 8.8811 4.7953 5.5133 5.1297 6.2456 5.1297 11.234v5.3366l-13.25 2.3436c-14.546 2.5727-28.48 5.3007-42.113 8.2445-7.7882 1.6818-9.4486 2.4407-13.697 6.2605-5.5731 5.0107-11.888 7.1894-18.294 6.3114-3.995-0.54757-5.3861-0.0139-18.236 6.9953-14.892 8.1232-24.883 14.289-38.344 23.661-4.6384 3.2296-8.9503 6.0703-9.5819 6.3127-0.65221 0.25028-2.2823-2.2781-3.7727-5.8518zm14.701-9.6045c25.175-20.645 38.872-28.188 51.186-28.188h4.2356l1.0753-5.0141c0.59143-2.7578 1.7596-6.6518 2.596-8.6535 0.83637-2.0017 1.2522-3.9079 0.92396-4.2359-1.5186-1.518-17.145-0.24052-22.651 1.8517-5.4765 2.0811-18.137 10.447-24.728 16.339-3.0384 2.7166-15.274 12.212-18.313 14.213-1.0882 0.71618-1.7026 3.6254-2.1645 10.25-0.35473 5.0875-0.33061 9.25 0.05359 9.25 0.38421 0 3.8879-2.6154 7.7859-5.812zm-10.15-5.938 0.49513-6.75-12.442-29.5c-17.289-40.988-19.517-45.999-20.455-45.999-0.45252 0-1.0267 1.0125-1.2759 2.25-1.6018 7.9528-1.4948 8.8604 2.0045 17.006 5.7959 13.491 9.8944 23.17 18.524 43.744 4.4985 10.725 8.7943 20.962 9.5462 22.75 0.75194 1.7875 1.7587 3.25 2.2373 3.25 0.47855 0 1.0929-3.0375 1.3652-6.75zm9.9513-15.5c3.6823-2.8875 10.428-8.3223 14.991-12.077 13.047-10.738 26.576-16.673 38.006-16.673 2.6344 0 4.7899-0.34243 4.7899-0.76096 0-0.75377-3.5165-5.9803-19-28.239-4.401-6.324-10.459-15.069-13.463-19.432-6.998-10.162-16.07-19.344-20.256-20.5-4.18-1.154-12.596 0.755-18.449 4.185-4.108 2.407-10.885 8.067-22.194 18.536l-4.861 4.4997 2.4867 6.1061c3.3943 8.3347 23.918 56.742 27.075 63.856 1.4029 3.1625 2.9171 5.75 3.3649 5.75s3.827-2.3625 7.5094-5.25zm89.86-26.784c2.4343-0.66311 12.86-1.5234 23.169-1.9117 10.308-0.38834 18.934-0.89725 19.167-1.1309 0.41219-0.41219-1.2632-15.076-2.0283-17.754-0.30118-1.0539-2.5096-1.1882-10.631-0.64658-25.228 1.6825-38.337 4.8632-45.575 11.058-3.3363 2.8558-10.176 14.154-10.176 16.81 0 0.4722 1.2587 0.6068 2.7971 0.29912 3.5452-0.70904 4.8669 0.12254 5.743 3.6133l0.69869 2.7838 6.2045-5.9579c4.3762-4.2023 7.5088-6.3132 10.631-7.1635zm-24.044-5.0386c2.0714-5.0009 9.4282-11.581 15.478-13.845 8.027-3.0033 12.431-3.8017 27.992-5.0751 15.343-1.2556 18.736-1.8257 18.294-3.0739-0.16145-0.45516-12.413-13.033-27.225-27.95-22.458-22.617-27.275-27.012-29-26.457-1.1377 0.36602-9.4935 1.0019-18.568 1.4131-20.29 0.91928-23.476 2.2668-30.516 12.904l-2.7525 4.1593 2.3841 3.3803c3.4875 4.9447 12.172 17.134 17.63 24.746 2.6147 3.6463 6.7403 9.4963 9.168 13 7.8394 11.314 14.342 19.87 15.102 19.87 0.40765 0 1.3138-1.3826 2.0138-3.0723z"/>
</svg>
